<svg width="17" height="16" viewBox="0 0 17 16" fill="none" xmlns="http://www.w3.org/2000/svg">
<path d="M8.375 15.7617H8.36333C6.21083 15.7217 0 10.11 0 4.795C0 2.24167 2.10417 0 4.5025 0C6.41083 0 7.69417 1.31667 8.37417 2.275C9.0525 1.31833 10.3358 0 12.245 0C14.645 0 16.7483 2.24167 16.7483 4.79583C16.7483 10.1092 10.5367 15.7208 8.38417 15.76H8.375V15.7617ZM4.50333 1.25083C2.77 1.25083 1.25083 2.9075 1.25083 4.79667C1.25083 9.58 7.1125 14.46 8.37583 14.5117C9.64083 14.46 15.5008 9.58083 15.5008 4.79667C15.5008 2.9075 13.9817 1.25083 12.2483 1.25083C10.1417 1.25083 8.965 3.6975 8.955 3.72167C8.76333 4.19 7.99167 4.19 7.79917 3.72167C7.7875 3.69667 6.61167 1.25083 4.50417 1.25083H4.50333Z" fill="currentColor"/>
</svg>
