<svg width="17" height="17" viewBox="0 0 17 17" fill="none" xmlns="http://www.w3.org/2000/svg">
<path d="M14.7917 0H1.875C0.841667 0 0 0.841667 0 1.875V14.7917C0 15.825 0.841667 16.6667 1.875 16.6667H14.7917C15.825 16.6667 16.6667 15.825 16.6667 14.7917V1.875C16.6667 0.841667 15.825 0 14.7917 0ZM1.875 1.25H14.7917C15.1358 1.25 15.4167 1.53083 15.4167 1.875V9.93833L12.2017 6.72333C12.085 6.60667 11.9267 6.54 11.76 6.54H11.7575C11.5908 6.54 11.43 6.60667 11.3142 6.72667L7.71667 10.38L6.20583 8.875C6.08917 8.75833 5.93083 8.69167 5.76417 8.69167C5.60333 8.66667 5.435 8.75833 5.31833 8.88083L1.25 13.035V1.875C1.25 1.53083 1.53083 1.25 1.875 1.25ZM1.255 14.8167L5.77 10.205L11.005 15.4167H1.875C1.54 15.4167 1.26917 15.1483 1.255 14.8167ZM14.7917 15.4167H12.775L8.6025 11.2608L11.7625 8.0525L15.4167 11.7058V14.7917C15.4167 15.1358 15.1358 15.4167 14.7917 15.4167Z" fill="#1D9BF0"/>
<path d="M5.72332 6.5425C6.43301 6.5425 7.00832 5.96719 7.00832 5.2575C7.00832 4.54782 6.43301 3.9725 5.72332 3.9725C5.01364 3.9725 4.43832 4.54782 4.43832 5.2575C4.43832 5.96719 5.01364 6.5425 5.72332 6.5425Z" fill="#1D9BF0"/>
</svg>
