<svg width="17" height="17" viewBox="0 0 17 17" fill="none" xmlns="http://www.w3.org/2000/svg">
<path d="M9.95833 0.00833333L6.50167 0H6.5C2.855 0 0 2.85583 0 6.50167C0 9.91667 2.655 12.5067 6.22083 12.6433V15.8333C6.22083 15.9233 6.2575 16.0717 6.32083 16.1692C6.43917 16.3567 6.64083 16.4583 6.8475 16.4583C6.9625 16.4583 7.07833 16.4267 7.1825 16.36C7.4025 16.22 12.5767 12.91 13.9225 11.7717C15.5075 10.43 16.4558 8.46333 16.4583 6.51167V6.4975C16.4533 2.85833 13.6 0.00833319 9.95833 0.00749985V0.00833333ZM13.1142 10.8183C12.1692 11.6183 9.0625 13.6558 7.47083 14.6875V12.0317C7.47083 11.6867 7.19167 11.4067 6.84583 11.4067H6.51583C3.46583 11.4067 1.25083 9.34333 1.25083 6.50167C1.25083 3.55667 3.5575 1.25 6.50083 1.25L9.95667 1.25833H9.95833C12.9017 1.25833 15.2083 3.56333 15.21 6.505C15.2075 8.09667 14.425 9.70833 13.115 10.8183H13.1142Z" fill="currentColor"/>
</svg>
