<svg width="20" height="14" viewBox="0 0 20 14" fill="none" xmlns="http://www.w3.org/2000/svg">
<path d="M19.7987 9.80875C19.5554 9.56458 19.1596 9.56458 18.9154 9.80875L17.0654 11.6587V3.12542C17.0654 1.40208 15.6629 0.000416841 13.9404 0.000416841H9.06542C8.72042 0.000416841 8.44042 0.280417 8.44042 0.625417C8.44042 0.970417 8.72042 1.25042 9.06542 1.25042H13.9404C14.9737 1.25042 15.8154 2.09208 15.8154 3.12542V11.6587L13.9654 9.80875C13.7212 9.56458 13.3254 9.56458 13.0821 9.80875C12.8387 10.0529 12.8371 10.4487 13.0821 10.6921L15.9987 13.6087C16.1196 13.7312 16.2796 13.7921 16.4404 13.7921C16.6012 13.7921 16.7596 13.7321 16.8821 13.6087L19.7987 10.6921C20.0437 10.4487 20.0437 10.0529 19.7987 9.80875ZM10.9154 12.5421H6.04042C5.00708 12.5421 4.16542 11.7004 4.16542 10.6671V2.13375L6.01542 3.98375C6.13875 4.10625 6.29875 4.16708 6.45875 4.16708C6.61875 4.16708 6.77875 4.10625 6.90042 3.98375C7.14458 3.73958 7.14458 3.34375 6.90042 3.10042L3.98375 0.18375C3.73958 -0.06125 3.34375 -0.06125 3.10042 0.18375L0.18375 3.10042C-0.06125 3.34375 -0.06125 3.73958 0.18375 3.98375C0.42875 4.22792 0.822917 4.22792 1.06708 3.98375L2.91708 2.13375V10.6671C2.91708 12.3904 4.31958 13.7921 6.04208 13.7921H10.9171C11.2621 13.7921 11.5421 13.5121 11.5421 13.1671C11.5421 12.8221 11.2612 12.5421 10.9171 12.5421H10.9154Z" fill="currentColor"/>
</svg>
