<svg xmlns="http://www.w3.org/2000/svg" width="150" height="150" viewBox="0 0 150 150"><path d="M68.652 17.379h.573l.591.003.591-.003h1.092c.528.021 1.035.087 1.554.168v.3a18 18 0 0 1-.957.618A22 22 0 0 0 69.45 20.4l-.369.3c-1.377 1.17-2.388 2.616-3.459 4.059-1.203 1.614-2.481 3.21-4.083 4.446l-.366.282-.273.213a63 63 0 0 0 5.616-2.598l.324-.168q1.773-.918 3.522-1.887c8.619-4.797 19.221-6.33 28.986-6.336h.444a75 75 0 0 1 8.508.489l.582.066c5.565.654 11.634 1.737 16.818 3.984l.15.3-.417.054c-4.641.615-9.306 1.266-13.533 3.396l-.426.207c-1.806.912-3.453 2.109-5.124 3.243l.381.072c2.394.447 4.779.891 7.119 1.578l.327.093c3.18.915 6.33 2.142 9.273 3.657l.309.159a43.5 43.5 0 0 1 9.822 7.005c.354.336.354.336.717.588l.252.198v.3h.3c.207.204.207.204.45.498q.645.756 1.323 1.482c6.114 6.732 9.228 15.972 8.877 25.02-.348 6.759-2.34 13.503-6.3 19.05l-.216.303c-2.088 2.916-4.512 5.724-7.344 7.941a36 36 0 0 0-1.272 1.056c-.915.762-1.875 1.443-2.868 2.1l-.3.201a60 60 0 0 1-3.861 2.376q-.687.39-1.359.798c-.999.585-2.04 1.065-3.09 1.548l-.888.417a63 63 0 0 1-4.026 1.74l-.318.126a105 105 0 0 1-13.458 4.194l-.333.081c-5.598 1.374-11.337 2.295-17.067 2.919l-.336.036a192 192 0 0 1-17.352 1.119l-.345.006-.909.015c-1.353.042-1.353.042-2.478.735a24 24 0 0 1-2.334 1.764l-.378.255-.735.495-.837.582c-2.472 1.749-5.097 3.279-7.746 4.743l-.375.207c-6.231 3.42-13.755 6.729-20.982 6.72h-.378c-1.068-.012-2.106-.021-3.015-.627.198-.435.405-.741.744-1.077l.273-.27.294-.288.303-.3.966-.951.957-.945.594-.588a34 34 0 0 0 1.869-2.028l.456-.516c2.406-2.733 4.554-5.583 6.294-8.787l-.3-.03c-6.417-.642-13.152-2.19-18.246-6.393-1.044-.849-2.073-1.308-3.345-1.725-3.51-1.158-6.909-2.838-8.685-6.273A16.5 16.5 0 0 1 5.25 96.15c4.272.789 8.181 3.993 10.725 7.407l.258.342q.516.678 1.011 1.365a9.7 9.7 0 0 0 4.806 3.486v-.3l-.249-.093c-.48-.282-.798-.672-1.146-1.095l-.222-.267a18 18 0 0 1-1.68-2.442l-.168-.288c-2.31-4.011-3.459-8.502-4.035-13.065l-.048-.345c-.534-4.062-.576-8.526.198-12.555l.072-.387c.846-4.23 2.934-7.884 5.478-11.313l.198-.267c4.284-5.748 4.284-5.748 7.83-6.279a30 30 0 0 1 3.09-.102h.36c1.674.003 3.3.111 4.962.336 5.589.726 10.887-.195 15.408-3.648a32 32 0 0 0 2.241-1.953 27 27 0 0 1 .963-.861l.285-.243.213-.183c-8.706-.513-8.706-.513-17.4 0l-.381.045c-2.799.339-5.373 1.302-7.542 3.147-.3.237-.579.405-.93.561v.3c-.372.381-.789.711-1.2 1.05l-.327.27c-.792.627-.792.627-1.47.627a4.8 4.8 0 0 1 .825-1.473l.276-.36.249-.267h.3l.105-.246c.252-.453.585-.819.927-1.206a24 24 0 0 0 1.809-2.391c2.082-3.03 5.427-5.049 8.85-6.282l.288-.105c1.632-.549 3.318-.639 5.025-.645l.321-.003c2.19-.003 4.197.393 6.333.873 5.628 1.182 11.139-.3 15.942-3.327.3-.168.3-.168.6-.168v-.3l-.279.006a16 16 0 0 1-2.628-.174l-.39-.06c-1.446-.237-2.823-.672-4.215-1.122-2.481-.801-4.944-1.449-7.575-1.407l-.438.006c-4.434.096-7.935 1.836-11.307 4.602l-.396.324-.342.285c-.501.36-.885.567-1.506.483L39 46.35c.048-.78.495-1.176 1.032-1.689l.267-.261c.78-.75 1.599-1.437 2.451-2.103l.441-.363c1.308-1.065 2.715-1.86 4.209-2.637l.537-.282c4.704-2.475 9.213-3.948 14.586-3.945h.3c2.319 0 4.635.108 6.951.222 4.617.222 9.225.198 13.746-.864l1.176-.273a777 777 0 0 0 4.767-1.107l.426-.099.393-.093.342-.081c.291-.069.291-.069.579-.225a55.8 55.8 0 0 0-10.95-2.25l-.318-.033c-4.479-.435-8.94.057-13.332.933l-.372.075C60.903 32.34 55.875 33.798 50.907 36a12 12 0 0 1-1.254.45c.12-4.737 2.466-9.786 5.85-13.05a28.5 28.5 0 0 1 4.2-3l.288-.174c2.565-1.548 5.628-2.841 8.667-2.844m19.305 7.248-.321.078-.894.228-.519.132c-.447.117-.447.117-.873.432l.426.033 1.983.162.363.03c1.434.12 2.853.264 4.278.477 1.248.18 2.481.246 3.741.252l.483.006c2.361-.015 4.497-.669 6.705-1.422l1.443-.483.342-.114a16 16 0 0 1 2.43-.591 5.7 5.7 0 0 0-1.716-.534l-.288-.057c-5.778-1.074-11.964-.03-17.589 1.371M133.2 51.6l.15.3Zm.15.3q.21.975.444 1.938c.66 2.712.942 5.358.945 8.148v.342c-.003 6.195-.78 12.054-4.539 17.172l-.21.285c-2.817 3.816-5.964 7.212-9.99 9.765l-.33.213a67 67 0 0 1-6.27 3.537l-.483.243c-12.279 6.126-25.407 8.013-38.892 9.504l-.324.036q-1.671.186-3.345.36c-2.877.303-5.757.657-8.568 1.362l-.453.111c-4.353 1.089-8.448 2.349-12.285 4.734-.204-.792-.204-.792.03-1.266.279-.399.576-.693.936-1.02 1.377-1.35 2.694-3.102 3.384-4.914l.144-.375c.636-2.04.63-4.722-.294-6.675l-.3-.3-.351.324-.474.435-.249.231a45 45 0 0 1-1.362 1.206c-1.278 1.119-2.22 2.253-2.514 3.957a15 15 0 0 0-.009.747l.006.438.006.471.009 1.005q.006.786.018 1.569c.024 1.851.024 3.621-.378 5.433-.123.684-.249 1.425.063 2.067.696.747 1.314 1.113 2.352 1.236.513-.021.933-.156 1.413-.336l.441-.165.795-.303c8.439-3.204 17.823-4.467 26.739-5.58l.333-.042.675-.084c13.419-1.677 26.277-4.539 40.137-13.059l.48-.333c2.514-1.758 5.004-3.642 7.17-5.817l.348-.252.252-.198v-.3l.246-.09c.507-.3.843-.729 1.215-1.176l.243-.288c5.118-6.135 7.692-13.881 7.068-21.852-.345-3.762-1.233-7.326-3.072-10.644l-.153-.276a27 27 0 0 0-.897-1.524zM24.9 66.864l-.399.12c-.99.306-1.896.678-2.751 1.269l-.285.195c-2.064 1.59-3.342 4.416-4.068 6.858v.3a36 36 0 0 0 1.104-.57c2.367-1.251 4.581-1.707 7.257-1.671 5.052.03 9.999-.813 13.872-4.287.42-.378.42-.378.849-.708l.321-.27v-.3l.264-.12c.342-.183.606-.384.897-.639l.279-.24.21-.201v-.15a201 201 0 0 0-10.143-.339l-.384-.003c-2.355-.012-4.758.054-7.023.753m33.468 2.091c-1.704 1.869-2.109 3.819-2.001 6.27.132 1.482.816 2.763 1.833 3.828l.333.351c1.515 1.479 3.261 2.124 5.367 2.199 2.028-.054 3.795-.96 5.232-2.364l.318-.336.267-.279c1.377-1.632 1.566-3.645 1.422-5.688a5.4 5.4 0 0 0-.636-1.983l-.198-.39c-1.035-1.875-2.622-3.024-4.635-3.696-2.694-.732-5.322.177-7.299 2.088m23.55 0c-1.704 1.869-2.109 3.819-2.001 6.27.132 1.482.816 2.763 1.833 3.828l.333.351c1.512 1.479 3.258 2.124 5.364 2.199 2.028-.054 3.795-.96 5.232-2.364L93 78.9l.267-.279c1.377-1.632 1.566-3.645 1.422-5.688a5.4 5.4 0 0 0-.636-1.983l-.198-.39c-1.035-1.875-2.622-3.024-4.635-3.696-2.694-.732-5.322.177-7.299 2.088m23.55 0c-1.704 1.869-2.109 3.819-2.001 6.27.132 1.482.816 2.763 1.833 3.828l.333.351c1.512 1.479 3.258 2.124 5.364 2.199 2.028-.054 3.795-.96 5.232-2.364l.318-.336.267-.279c1.377-1.632 1.566-3.645 1.422-5.688a5.4 5.4 0 0 0-.636-1.983l-.198-.39c-1.035-1.875-2.622-3.024-4.635-3.696-2.694-.732-5.322.177-7.299 2.088M33.216 78.954a24 24 0 0 1-4.386.591c-2.214.126-4.359.303-6.477 1.005l-.363.12c-2.58.879-4.374 1.908-5.607 4.401-.495 1.179-.528 2.649-.216 3.885.381.894.879 1.284 1.761 1.671.888.297 1.737.303 2.664.303l.411.006c1.866.003 3.261-.429 4.608-1.743.492-.492.972-.978 1.389-1.536.363-.423.732-.654 1.212-.936l.528-.318a48 48 0 0 1 .93-.534c1.911-1.113 3.948-3.006 4.59-5.178a9.3 9.3 0 0 0 .093-1.941c-.396 0-.756.108-1.14.204M30.12 93.156c-1.389 1.536-1.731 3.282-1.671 5.286.222 3.882 2.439 8.433 5.322 11.031a2.55 2.55 0 0 0 1.032.627v.3a12 12 0 0 0 .864.639l.267.183c2.718 1.818 5.418 2.238 8.619 1.881-.198-.591-.396-.972-.9-1.35a12 12 0 0 0-1.2-.225c-2.742-.426-5.325-1.506-7.05-3.777-.975-1.614-.933-3.591-.525-5.382.24-.951.606-1.824 1.002-2.718 1.341-3.045.327-5.976-.477-9.048-1.713 0-4.083 1.434-5.283 2.553M42.3 91.5v.3H42c-2.169 2.346-2.988 5.262-2.892 8.424.21 2.136 1.5 3.768 2.805 5.379q.654.822 1.287 1.656l.252.324c.402.522.777 1.041 1.098 1.617.372-.372.411-.636.534-1.143l.114-.456a15.3 15.3 0 0 0-1.26-9.966c-.954-1.989-1.284-3.96-1.488-6.135zm-20.25 6.75c-.633.837-.552 1.848-.45 2.85.399 1.797 1.338 3.426 2.55 4.8l.24.276c.744.747 1.632 1.095 2.589 1.494 1.242.528 2.352 1.236 3.474 1.98 0-.576-.171-.708-.525-1.152-2.319-3.114-4.017-7.326-3.447-11.229l.069-.369c-1.797-.069-3.231-.042-4.5 1.35m18.303 20.562a6.5 6.5 0 0 1-.672.99l-.219.285-.216.279-.495.642-.249.321-.738.966q-1.347 1.782-2.763 3.504a18 18 0 0 0-1.248 1.704c2.592-.96 4.878-2.835 7.05-4.5l.279-.213a75 75 0 0 0 4.98-4.194l.237-.216c.378-.348.729-.708 1.053-1.104l.348-.426a63 63 0 0 0-2.409-.195 24 24 0 0 1-.819-.072c-2.244-.228-3.084.225-4.119 2.229M19.8 46.5l-.015.414c-.126 3.306-.213 6.387.594 9.621.579 2.406.57 4.908-.726 7.065-.933 1.449-1.953 2.835-3 4.2l-.186.243-.957 1.245q-.342.441-.678.885l-.288.375-.249.327-.195.225h-.15l-.093-.54a18.3 18.3 0 0 0-1.557-4.71c-1.422-3.051-1.455-6.72-.306-9.891.792-2.019 4.989-9.459 7.806-9.459m12.9-13.35c.168.51.132.885.039 1.41l-.081.48-.087.501c-.36 2.043-.483 4.05-.534 6.123-.201 6.555-2.307 10.635-6.966 15.177a24 24 0 0 0-.639.651c-.282.258-.282.258-.582.258l-.15.45h-.3l-.006-.522c-.051-2.157-.318-4.263-.636-6.393-.51-3.534-.393-6.828 1.767-9.822q.507-.666 1.053-1.299l.654-.786c4.29-5.139 4.29-5.139 6.468-6.228" fill="#fff"/><path d="M51 23.4a8.4 8.4 0 0 1-.549 1.8l-.12.306-.39.978-.27.678-.402 1.011-.714 1.812a66 66 0 0 1-1.596 3.765l-.168.375c-.879 1.86-2.244 3.3-3.693 4.728l-.801.801-.513.51-.24.243c-.558.543-.558.543-.894.543l-.15.45h-.3v.3c-.513.549-1.068 1.05-1.623 1.557l-.24.219a66 66 0 0 1-1.335 1.188c-.906.789-1.68 1.587-2.352 2.589-.177-.429-.156-.582.021-1.02l.249-.459c.759-1.407.948-2.7.948-4.272l.009-.717.009-1.107c.006-3.972 1.788-6.903 4.452-9.786q.426-.468.828-.96l.384-.432h.3v-.3c.363-.387.789-.714 1.2-1.05l.429-.354c2.067-1.671 4.776-3.459 7.521-3.396M8.1 59.25l.018.576c.123 3.468 1.104 6.234 2.505 9.375a54 54 0 0 1 1.311 3.249l.147.399c1.47 4.122.09 8.529-.831 12.651a2.04 2.04 0 0 1-1.011-.825l-.228-.324L9.768 84a69 69 0 0 0-2.175-2.925c-2.688-3.438-3.741-6.324-3.759-10.689l-.003-.333c-.012-2.031.21-4.029.921-5.946l.117-.318c.468-1.23 1.773-4.539 3.231-4.539M3.15 80.1c.594.252 1.026.621 1.5 1.05v.3l.261.111c.405.225.669.495.987.828.48.492.966.954 1.497 1.389 3.012 2.625 4.692 5.658 5.484 9.549a15.2 15.2 0 0 0 1.275 3.714c.306.633.465 1.089.396 1.809-.372.144-.636.198-1.011.042a15 15 0 0 1-.882-.558l-.324-.21-.933-.624-.45-.303c-2.553-1.797-4.554-3.813-6-6.597l-.213-.399c-1.176-2.358-1.533-5.094-1.689-7.692l-.021-.36a9 9 0 0 1 .126-2.049m132.765-50.502.576-.003c2.814.054 4.842 1.143 6.966 2.883 1.041.849 2.115 1.71 3.387 2.175-.15.45-.15.45-.438.621l-.357.15-.354.15c-2.736 1.02-5.634-.117-8.136-1.227a24 24 0 0 1-1.119-.555c-1.521-.774-3.063-1.017-4.737-1.227-1.512-.192-2.865-.462-4.206-1.212l.15-.3q.45-.066.909-.102c.897-.09 1.698-.303 2.55-.594a14.4 14.4 0 0 1 4.809-.756m-.168-3.801v.3l-.243.081c-2.361.801-4.575 1.812-6.807 2.919-2.583 1.281-4.83 1.536-7.707 1.539h-.318c-2.364-.003-4.794-.081-6.975-1.089v-.15l.351-.033c3.129-.291 5.769-.837 8.667-2.052 4.26-1.77 8.478-2.019 13.032-1.515" fill="#fff"/></svg>